<?xml version="1.0"?>
<svg version="1.1" viewBox="0 0 449 315" xmlns="http://www.w3.org/2000/svg">
  <style>path{fill:#32ccc4!important}</style>
  <path transform="translate(414.31 34.125)" d="m0 0c0.61488 0.53883 1.2298 1.0777 1.8633 1.6328 5.0922 6.259 6.4138 12.011 6.3389 19.951 0.0069455 0.94787 0.013891 1.8957 0.021047 2.8723 0.018224 3.1605 0.0080182 6.3203-0.0022635 9.4808 0.0070608 2.2723 0.015806 4.5445 0.026108 6.8168 0.022486 6.1612 0.019556 12.322 0.010679 18.483-0.005113 5.1467 0.0021852 10.293 0.0094721 15.44 0.017968 12.837 0.011591 25.673-0.0061698 38.51-0.014695 11.135-6.896e-5 22.27 0.02877 33.406 0.029428 11.448 0.039849 22.897 0.030818 34.345-0.0049271 6.4216-0.0027248 12.843 0.017788 19.265 0.018366 6.0388 0.012386 12.077-0.012199 18.116-0.0050046 2.2135-0.0015272 4.427 0.011148 6.6405 0.015962 3.0273 9.4898e-4 6.053-0.021671 9.0802 0.011836 0.87103 0.023671 1.7421 0.035866 2.6395-0.096873 6.4036-1.9588 10.976-5.6641 16.197-2.3516 2.1562-2.3516 2.1562-4.625 3.5-1.1331 0.69609-1.1331 0.69609-2.2891 1.4062-3.8372 2.012-6.8459 2.2203-11.117 2.2252-1.269 0.0038412-2.538 0.0076823-3.8454 0.01164-1.4163-7.803e-4 -2.8325-0.0016591-4.2488-0.0026257-1.4983 0.0025829-2.9966 0.0055958-4.4949 0.0090034-4.128 0.0080826-8.2559 0.0098603-12.384 0.010597-4.448 0.0018484-8.896 0.0093947-13.344 0.016135-9.7315 0.013593-19.463 0.01961-29.194 0.024011-6.0748 0.002761-12.15 0.0069981-18.224 0.011504-16.815 0.012194-33.629 0.022493-50.444 0.025875-1.0766 2.1957e-4 -2.1532 4.3913e-4 -3.2624 6.6535e-4 -1.0792 2.1828e-4 -2.1584 4.3656e-4 -3.2703 6.6145e-4 -2.1869 4.4347e-4 -4.3738 8.9003e-4 -6.5607 0.0013397-1.6272 3.3214e-4 -1.6272 3.3214e-4 -3.2872 6.7099e-4 -17.577 0.0039479-35.154 0.021401-52.731 0.044689-18.04 0.023708-36.079 0.036176-54.119 0.037342-10.131 9.1711e-4 -20.262 0.0066784-30.393 0.02482-8.6273 0.015394-17.254 0.020526-25.882 0.012262-4.402-0.0039092-8.8038-0.0029639-13.206 0.011057-4.0312 0.012723-8.0622 0.011556-12.093-5.9072e-4 -1.457-0.0019598-2.914 0.0011346-4.3709 0.0098444-16.52 0.092493-16.52 0.092493-22.856-5.2827-0.53883-0.6716-1.0777-1.3432-1.6328-2.0352-0.5543-0.66902-1.1086-1.338-1.6797-2.0273-2.63-3.7034-3.7051-6.2033-3.5703-10.785 0.018047-0.79922 0.036094-1.5984 0.054688-2.4219 0.023203-0.60328 0.046406-1.2066 0.070312-1.8281h-2l2-6-2-1c0.32552-2.0182 0.65104-4.0365 0.97656-6.0547 0.0077344-0.64195 0.015469-1.2839 0.023438-1.9453l-2-2c0.375-2.125 0.375-2.125 1-4h2c-0.14095-1.6254-0.28792-3.2503-0.4375-4.875-0.081211-0.90492-0.16242-1.8098-0.24609-2.7422-0.1863-2.3939-0.1863-2.3939-1.3164-4.3828l0.5625-2.375c0.50276-3.0165 0.034213-4.089-1.5625-6.625l2-3c0.45395-2.2791 0.45395-2.2791 0.625-4.6875 0.074766-0.80824 0.14953-1.6165 0.22656-2.4492 0.048984-0.61488 0.097969-1.2298 0.14844-1.8633h-2l2-8h-2v-12h2l-2-2c-1.2419-4.5161-1.2419-4.5161 0-7h2c-0.52594-0.92812-0.52594-0.92812-1.0625-1.875-0.30938-0.70125-0.61875-1.4025-0.9375-2.125l1-2c0.2295-2.2044 0.41076-4.4139 0.5625-6.625 0.083789-1.1885 0.16758-2.377 0.25391-3.6016 0.060586-0.91523 0.12117-1.8305 0.18359-2.7734h-2c-0.20086-3.716-0.15194-4.7721 2-8h-2c-1.0445-3.1335-0.93424-3.9897 0-7h2c-0.51008-6.2903-0.51008-6.2903-1.5625-12.5-0.72411-4.1378-0.50733-8.3103-0.4375-12.5v-1c0.27844-0.99 0.27844-0.99 0.5625-2 0.21656-0.99 0.21656-0.99 0.4375-2l-1-1c-0.043202-2.3329-0.040224-4.667 0-7 0-2.1671-0.047654-4.3343-0.125-6.5 0.125-3.5 0.125-3.5 2.125-6.5h-2l1-3c0.34227-1.3311 0.67752-2.664 1-4h-2v-4h2c-0.32742-0.55172-0.65484-1.1034-0.99219-1.6719-1.1757-2.7159-1.2103-4.6336-1.1328-7.5781 0.02707-1.338 0.02707-1.338 0.054688-2.7031 0.023203-0.67547 0.046406-1.3509 0.070312-2.0469h1v-5h-1c-0.12529-5.5128-0.12529-5.5128 0.5625-8.1875 0.65944-2.03 0.65944-2.03-0.5625-4.8125h2c-0.034805-0.78504-0.069609-1.5701-0.10547-2.3789-0.21525-8.3538 0.49101-12.917 5.3555-19.809 5.6205-5.7483 11.212-7.6554 19.224-7.9328 1.9324 0.0033309 1.9324 0.0033309 3.9038 0.0067291 0.72285-1.4886e-4 1.4457-2.9772e-4 2.1904-4.5109e-4 2.4154 6.9251e-4 4.8306 0.0085289 7.246 0.01632 1.74 0.0019213 3.4799 0.0033841 5.2199 0.004425 3.7615 0.0031663 7.523 0.0094475 11.285 0.018066 6.0584 0.013698 12.117 0.01946 18.175 0.024139 15.132 0.012934 30.265 0.036788 45.397 0.061401 14.713 0.023756 29.427 0.041846 44.14 0.052124 1.0472 8.3533e-4 2.0943 0.0016706 3.1732 0.0025313 35.74 0.026893 71.472-0.21568 107.21-0.69921 110.03-1.4854 110.03-1.4854 117.9 5.7592zm-370.31 15.875c-1.2688 5.244-1.1462 10.613-1.1404 15.984-0.0029711 0.88183-0.0059422 1.7637-0.0090034 2.6722-0.0086428 2.9425-0.010191 5.8849-0.011688 8.8274-0.004631 2.1144-0.009656 4.2287-0.015045 6.3431-0.013092 5.7331-0.019562 11.466-0.024011 17.199-0.0029336 3.5802-0.0070387 7.1605-0.011504 10.741-0.013661 11.198-0.023337 22.396-0.027202 33.595-0.0044894 12.936-0.022084 25.871-0.051001 38.807-0.021576 9.9976-0.031701 19.995-0.033041 29.993-0.0010502 5.9731-0.0070043 11.946-0.02482 17.919-0.016412 5.611-0.01867 11.222-0.009861 16.833 7.7385e-4 2.0628-0.0036179 4.1257-0.013458 6.1885-0.012614 2.808-0.0069009 5.6153 0.003582 8.4232-0.0080564 0.82304-0.016113 1.6461-0.024413 2.4941-0.066092 4.1018-0.066092 4.1018 1.6768 7.6711 5.7213 4.3725 17.876 2.4526 24.709 2.4445 1.4108 0.0018707 2.8215 0.0041724 4.2323 0.0068653 3.858 0.006092 7.7159 0.0059875 11.574 0.0048056 4.1677-2.0466e-4 8.3353 0.0053207 12.503 0.010058 8.156 0.0082914 16.312 0.011054 24.468 0.011612 6.6273 4.7561e-4 13.255 0.0025326 19.882 0.0057006 18.792 0.0088002 37.583 0.01342 56.375 0.01267 1.0122-3.995e-5 2.0243-7.991e-5 3.0672-1.2108e-4 1.0134-4.088e-5 2.0268-8.176e-5 3.0709-1.2388e-4 16.444-4.0693e-4 32.887 0.0091762 49.331 0.023262 16.886 0.014351 33.772 0.021271 50.658 0.020406 9.4798-3.3227e-4 18.96 0.0024284 28.439 0.013178 8.0658 0.009088 16.132 0.011294 24.197 0.0044906 4.116-0.003273 8.232-0.0032936 12.348 0.0053532 3.7662 0.0078308 7.5322 0.0064689 11.298-0.0022841 2.011-0.0022744 4.022 0.0053202 6.033 0.01324 1.1922-0.0045988 2.3845-0.0091976 3.6129-0.013936 1.0291 2.1737e-4 2.0582 4.3474e-4 3.1185 6.5869e-4 3.0042-0.26803 5.1353-0.83402 7.7971-2.2495 2.2264-5.2619 2.2867-10.372 2.2607-15.984 0.0038256-0.88183 0.0076511-1.7637 0.011593-2.6722 0.010285-2.9425 0.0063466-5.8848 0.0023692-8.8274 0.0043488-2.1144 0.0095325-4.2287 0.015488-6.3431 0.013378-5.7331 0.01397-11.466 0.011437-17.199-0.0010698-4.7843 0.0038135-9.5686 0.0086054-14.353 0.01109-11.281 0.011535-22.562 0.0054858-33.842-0.0060498-11.649 0.006298-23.298 0.02757-34.946 0.017587-9.9976 0.023622-19.995 0.020362-29.993-0.0018165-5.9731 8.605e-4 -11.946 0.014715-17.919 0.012528-5.611 0.010682-11.222-0.0024109-16.833-0.0023758-2.0628 4.044e-4 -4.1257 0.0086231-6.1885 0.010384-2.808 0.0024345-5.6153-0.010311-8.4232 0.0073743-0.82304 0.014749-1.6461 0.022346-2.4941-0.012798-4.2599-0.012798-4.2599-1.7832-8.0311-1.6217-1.1818-1.6217-1.1818-3.8008-0.63823l-1.8125 0.6875v-2c-44.265-0.045747-88.53-0.081004-132.8-0.10213-5.2222-0.0025015-10.444-0.0050901-15.667-0.0077326-1.5595-7.8693e-4 -1.5595-7.8693e-4 -3.1506-0.0015898-16.849-0.0087099-33.698-0.024483-50.547-0.042853-17.28-0.018683-34.56-0.029808-51.841-0.033871-10.668-0.0027484-21.337-0.011439-32.005-0.027656-7.3092-0.010547-14.618-0.013773-21.928-0.01117-4.2212 0.0012841-8.4423-7.2719e-4 -12.663-0.011408-3.8615-0.0096998-7.7228-0.010245-11.584-0.0033868-1.3998 8.4824e-4 -2.7996-0.0017165-4.1994-0.0079686-1.8976-0.0079853-3.7952-0.0025221-5.6928 0.0036707-1.0556-7.5944e-4 -2.1112-0.0015189-3.1989-0.0023013-2.7914 0.25415-4.4387 0.64173-6.7282 2.2484zm-21 69 1 2zm0 12 1 2zm0 5 1 2zm0 3 1 2z"/>
  <path transform="translate(80,65)" d="m0 0 1 2h7v-2l2 1c2.3848 0.087556 4.7398 0.11537 7.1243 0.097656 1.1003-0.0021904 1.1003-0.0021904 2.2228-0.004425 1.5955-0.00381 3.191-0.0099308 4.7864-0.018066 2.5261-0.012741 5.0522-0.019274 7.5783-0.024139 6.2769-0.013388 12.554-0.037545 18.831-0.061401 5.2984-0.01974 10.597-0.03538 15.895-0.045563 2.4866-0.006476 4.9732-0.018987 7.4598-0.031708 1.53-0.003634 3.0601-0.0069855 4.5901-0.01001 0.68954-0.0051663 1.3791-0.010333 2.0895-0.015656 3.6037-3.9481e-4 6.9182 0.26082 10.423 1.1133l1-2v2c0.57105-0.072188 1.1421-0.14438 1.7305-0.21875 6.1931-0.70891 12.253-0.83758 18.484-0.71875 2.8716 0.072503 2.8716 0.072503 5.7852-1.0625 1.3387 0.31126 2.6715 0.64794 4 1 1.8119 0.090033 3.6267 0.12627 5.4408 0.12698 1.6573 0.0042297 1.6573 0.0042297 3.3481 0.0085449 1.2074-0.0020242 2.4148-0.0040485 3.6589-0.006134 1.9126 0.0026285 1.9126 0.0026285 3.8639 0.0053101 3.4936 0.0045567 6.9872 0.0027923 10.481-3.7909e-4 3.6546-0.0025316 7.3092-1.8392e-4 10.964 0.0013862 6.135 0.0018189 12.27-5.7774e-4 18.405-0.0053406 7.0982-0.0054469 14.196-0.0036757 21.295 0.0018264 6.0918 0.0045333 12.184 0.0051807 18.275 0.0025613 3.6397-0.0015609 7.2793-0.0017615 10.919 0.0015365 4.0537 0.0034166 8.1073-0.0013146 12.161-0.0069008 1.2115 0.0020242 2.4229 0.0040485 3.6711 0.006134 1.0992-0.0028198 2.1984-0.0056396 3.331-0.0085449 0.959-3.7702e-4 1.918-7.5405e-4 2.9061-0.0011425 2.3124 0.023887 2.3124 0.023887 4.2808-1.1258v2c1.8692-0.031421 1.8692-0.031421 3.7761-0.063477 4.6311-0.072497 9.2621-0.11836 13.894-0.15625 2.003-0.020093 4.006-0.047373 6.0088-0.082031 2.8821-0.048618 5.7634-0.071234 8.6458-0.088867 0.89289-0.020645 1.7858-0.04129 2.7057-0.062561 4.0876-0.0014693 6.3749 0.098784 9.9498 2.2276 3.2585 3.5897 4.2693 6.281 4.281 11.115 0.0070848 0.98273 0.01417 1.9655 0.021469 2.978-0.0024774 1.0718-0.0049548 2.1436-0.0075073 3.2479 0.0076664 1.7006 0.0076664 1.7006 0.015488 3.4355 0.013916 3.7527 0.012938 7.5053 0.010635 11.258 0.0038857 2.6055 0.0082202 5.2109 0.012985 7.8164 0.0082115 5.4633 0.0073054 10.927 0.0019074 16.39-0.0060403 6.311 0.0062734 12.622 0.02757 18.933 0.019749 6.0762 0.022789 12.152 0.019265 18.229 5.1397e-4 2.5832 0.0057657 5.1664 0.015812 7.7496 0.012317 3.6102 0.0056008 7.2198-0.0060062 10.83 0.0076437 1.0698 0.015287 2.1396 0.023163 3.2417-0.066258 9.3097-0.066258 9.3097-3.3955 13.003-3.5914 2.5267-6.02 3.3755-10.396 3.3803-1.0763 0.00844-2.1525 0.01688-3.2614 0.025576-1.1765-0.00601-2.3531-0.01202-3.5653-0.018212-1.2544 0.005385-2.5088 0.010771-3.8012 0.01632-3.4794 0.014469-6.9586 0.010205-10.438 0.0028332-3.7533-0.0047258-7.5066 0.0077729-11.26 0.018017-7.3517 0.017204-14.703 0.018025-22.055 0.012787-5.9743-0.004039-11.949-0.0026007-17.923 0.0027483-1.2749 0.0011226-1.2749 0.0011226-2.5755 0.0022679-1.7265 0.0015315-3.453 0.0030698-5.1796 0.004615-16.194 0.013731-32.388 0.0082831-48.582-0.0031852-14.821-0.0099352-29.642 0.0030121-44.462 0.026934-15.214 0.024371-30.427 0.034004-45.641 0.027347-8.5431-0.0034964-17.086-0.0012327-25.629 0.016251-7.2718 0.014697-14.543 0.01539-21.815-0.0020709-3.711-0.0085326-7.4218-0.010605-11.133 0.0046516-4.0204 0.016324-8.0401 0.0017467-12.06-0.015991-1.1765 0.009605-2.3531 0.01921-3.5653 0.029106-7.8733-0.071795-7.8733-0.071795-11.841-2.3927-4.199-4.9429-4.161-10.705-4.3784-16.888 0.011723-5.2865 0.011723-5.2865-1.4375-10.25h2v-14h-2l1-3c0.22451-2.2257 0.40783-4.4558 0.5625-6.6875 0.083789-1.1795 0.16758-2.359 0.25391-3.5742 0.060586-0.90363 0.12117-1.8073 0.18359-2.7383h-2l1-3c0.069858-1.4751 0.084424-2.9531 0.0625-4.4297-0.012568-1.3072-0.012568-1.3072-0.025391-2.6409-0.018369-1.3882-0.018369-1.3882-0.037109-2.8044-0.053164-7.1089 0.11902-14.088 0.77734-21.172 0.37559-4.9816 0.30361-9.961 0.22266-14.953h-2l0.5625-2.9375 0.4375-3.0625-1-1c-0.040638-1.6662-0.042721-3.3339 0-5h2l0.25-3.1875c0.84247-4.2826 1.4763-5.948 4.75-8.8125 2.9597-0.99563 5.9242-1.5018 9-2 1.3365-0.32039 2.671-0.64964 4-1zm2 21v94c14.129 0.12519 28.258 0.25038 42.387 0.37284 7.5947 0.06585 15.189 0.1321 22.784 0.19991 53.75 0.5702 53.75 0.5702 107.49-0.057129 23.388-0.55848 46.716-0.44069 70.101 0.16577 13.138 0.32484 26.118 0.21695 39.233-0.6814 2.532-31.153 0.56539-62.904 0-94h-282z"/>
  <!-- banyak <path> lain sama persis seperti aslinya (saya biarkan utuh agar bentuk tidak berubah) -->
  <!-- jika ingin file yang benar-benar 'diperkecil', saya bisa keluarkan versi minified (hapus whitespace & komentar) atau menjalankan SVGO -->
</svg>
