<svg xmlns="http://www.w3.org/2000/svg" viewBox="0 0 128 128" width="128" height="128" role="img" aria-label="Ikon sensor proximity induktif">
  <defs>
    <style>
      .stroke{stroke:#32ccc4; stroke-width:4; stroke-linecap:round; stroke-linejoin:round; fill:none}
      .fill{fill:#32ccc4; stroke:none}
    </style>
  </defs>

  <!-- badan sensor (silinder horizontal) -->
  <rect x="28" y="44" width="68" height="30" rx="8" class="stroke" />
  <rect x="28" y="44" width="68" height="30" rx="8" fill="rgba(50,204,196,0.06)" />

  <!-- muka sensor (lingkaran) -->
  <circle cx="28" cy="59" r="12" class="stroke" />
  <circle cx="28" cy="59" r="6" class="fill" />

  <!-- mur/hexagon kecil (di antara muka & badan) -->
  <polygon points="40,46 48,46 52,59 48,72 40,72 36,59" class="stroke" fill="rgba(50,204,196,0.08)"/>

  <!-- kabel keluar kanan -->
  <path d="M96 59h18c2.5 0 4 2 4 4v6" class="stroke" fill="none"/>

  <!-- gelombang deteksi (menghadap ke kiri, menunjukkan proximity) -->
  <path d="M12 59c4-8 12-12 20-12" class="stroke" />
  <path d="M8 59c6-12 18-18 30-18" class="stroke" />
  <path d="M4 59c8-16 22-24 36-24" class="stroke" />

  <!-- benda logam target (kotak kecil) -->
  <rect x="2" y="46" width="8" height="26" rx="1.5" class="fill" />

  <!-- highlight / detail kecil pada badan -->
  <line x1="56" y1="50" x2="56" y2="74" class="stroke" />
  <line x1="68" y1="50" x2="68" y2="74" class="stroke" />
</svg>
