<svg xmlns="http://www.w3.org/2000/svg" width="700" height="497"><path fill="#fff" d="m307.219 146.353 3.11-.027c3.391-.022 6.78-.007 10.171.01a5735.5 5735.5 0 0 0 7.072-.015c4.94-.007 9.88.004 14.819.027 6.332.029 12.663.012 18.995-.018 4.868-.018 9.735-.012 14.603 0 2.335.004 4.67 0 7.004-.011a787.6 787.6 0 0 1 9.788.034l2.926-.03c4.561.071 6.647.195 10.396 2.993 2.456 3.474 2.537 6.291 2.385 10.391l-.021 2.198c-.028 2.304-.09 4.605-.154 6.908-.026 1.567-.048 3.134-.069 4.7A915.9 915.9 0 0 1 408 185l2.244-.027c6.989-.08 13.977-.141 20.966-.18 3.593-.021 7.185-.05 10.778-.095 3.469-.043 6.938-.067 10.407-.078 1.963-.01 3.927-.042 5.89-.073l3.64-.001 3.196-.027c3.607.603 5.268 1.973 7.879 4.481 1.168 2.335 1.15 3.767 1.193 6.37l.049 2.742c.044 4.139.085 8.278.108 12.418.017 2.183.044 4.366.082 6.55.055 3.146.077 6.292.091 9.44l.07 2.951c-.014 4.297-.235 6.896-2.376 10.684-3.634 2.084-5.303 2.042-9.418 1.96l-3.287-.05L457 242l.014 3.016c.11 24.203.193 48.405.245 72.608.026 11.705.061 23.409.118 35.113.05 10.2.082 20.4.093 30.6.007 5.402.022 10.804.059 16.206.034 5.084.044 10.166.037 15.25 0 1.866.01 3.733.03 5.6.025 2.548.019 5.093.005 7.64l.044 2.244c-.053 3.676-.578 5.625-2.663 8.681-3.796 2.6-6.848 2.74-11.294 2.677l-2.527.024c-2.792.02-5.583.004-8.376-.012-2.002.007-4.005.016-6.007.027-5.438.022-10.876.013-16.314-.002-5.688-.013-11.377-.001-17.065.007-9.554.009-19.107-.003-28.66-.027a6688.914 6688.914 0 0 0-33.143.009c-9.482.023-18.964.026-28.446.013-5.665-.008-11.33-.009-16.994.007-5.326.015-10.65.005-15.976-.024a650.621 650.621 0 0 0-5.867.006c-2.667.014-5.333-.003-8-.028l-2.352.034c-3.766-.069-5.813-.568-8.943-2.71-2.524-3.701-2.704-6.596-2.62-10.925l-.012-2.414c-.008-2.666.019-5.33.046-7.996.002-1.912.001-3.824-.002-5.736-.001-5.19.028-10.38.063-15.57.031-5.423.034-10.847.04-16.27.016-10.272.057-20.542.107-30.812.056-11.693.083-23.386.108-35.079.053-24.052.14-48.105.252-72.157l-2.512.065-3.287.05-3.262.066C231 242 231 242 227.789 240.148c-2.575-4.531-2.488-8.39-2.418-13.523l-.007-3.037c0-2.114.014-4.23.04-6.344.033-3.233.02-6.464 0-9.697.007-2.057.017-4.115.03-6.172l-.015-2.923c.075-4.331.171-6.79 2.491-10.538 3.367-3.083 5.34-3.037 9.825-3.028h3.64l3.945.016 4.027.005c3.535.003 7.07.013 10.604.024 3.606.01 7.212.015 10.819.02 7.076.01 14.153.028 21.23.049l-.08-2.95c-.09-3.625-.147-7.25-.195-10.874-.025-1.567-.059-3.134-.102-4.7-.061-2.256-.09-4.512-.111-6.769l-.078-2.11c-.002-3.505.429-5.403 2.463-8.281 4.413-3.293 7.947-3.02 13.322-2.963ZM311 166v19h78v-19h-78Zm-66 38v19h210v-19H245Zm17 38v180h176V242h-30l-.028 11.411c-.034 12.425-.09 24.85-.156 37.276-.04 7.535-.072 15.07-.087 22.605-.013 6.568-.04 13.135-.084 19.703-.022 3.477-.038 6.955-.037 10.433.001 3.881-.03 7.762-.062 11.643l.015 3.499-.042 3.203-.011 2.783c-.666 3.205-1.996 4.414-4.508 6.444-2.254.496-2.254.496-4.563.438l-2.316-.004c-2.622-.536-3.498-1.337-5.121-3.434-.989-2.966-1.136-4.934-1.158-8.03l-.03-3.149-.017-3.453-.03-3.636c-.027-3.291-.048-6.582-.068-9.873-.022-3.44-.05-6.88-.076-10.318-.05-6.513-.095-13.026-.138-19.54-.05-7.414-.105-14.828-.16-22.243-.114-15.253-.22-30.505-.323-45.758h-30l-.028 11.411c-.034 12.425-.09 24.85-.156 37.276-.04 7.535-.072 15.07-.087 22.605-.013 6.568-.04 13.135-.084 19.703-.022 3.477-.038 6.955-.037 10.433.001 3.881-.03 7.762-.062 11.643l.015 3.499-.042 3.203-.011 2.783c-.665 3.199-2.01 4.407-4.508 6.444-2 .531-2 .531-4 .5l-2 .031c-2.909-.772-4.092-2.237-6-4.531-.508-2.444-.508-2.444-.519-5.227l-.042-3.203.015-3.499-.031-3.696c-.025-3.34-.031-6.68-.03-10.022-.004-3.492-.03-6.985-.052-10.478-.041-6.612-.061-13.224-.074-19.836-.016-7.528-.055-15.057-.095-22.585-.082-15.485-.134-30.97-.172-46.454h-30l-.044 11.212c-.05 12.213-.117 24.427-.192 36.64-.045 7.407-.084 14.813-.11 22.22-.023 6.455-.057 12.91-.103 19.367a1982.3 1982.3 0 0 0-.049 10.253c-.01 3.817-.037 7.633-.07 11.45l.005 3.43-.038 3.157-.014 2.735c-.514 3.39-1.946 6.097-4.385 8.536-1.926.238-1.926.238-4.313.313l-2.363.113c-3.219-.59-4.269-1.921-6.324-4.426-.508-2.444-.508-2.444-.519-5.227l-.042-3.203.015-3.499-.031-3.696c-.025-3.34-.031-6.68-.03-10.022-.004-3.492-.03-6.985-.052-10.478-.041-6.612-.061-13.224-.074-19.836-.016-7.528-.055-15.057-.095-22.585-.082-15.485-.134-30.97-.172-46.454h-30ZM185 132c6.792 4.845 12.572 11.421 18.438 17.313l2.755 2.744 2.616 2.619 2.368 2.372c2.459 2.633 2.79 3.61 3.136 7.264-.362 4.263-1.333 5.708-4.313 8.688-3.26 1.63-5.378 1.467-9 1-1.761-1.218-1.761-1.218-3.59-2.887l-2.11-1.925c-4.312-4.101-8.539-8.283-12.738-12.5l-2.755-2.745-2.616-2.619-2.368-2.372c-2.459-2.633-2.79-3.61-3.136-7.264.363-4.276 1.274-5.736 4.313-8.688 3.503-1.168 5.322-1.555 9-1ZM512.43 184.797l2.507-.017c1.75-.01 3.5-.016 5.25-.02 2.671-.01 5.341-.041 8.012-.072 1.702-.007 3.404-.012 5.106-.016l2.412-.038c4.586.019 7.554.4 11.283 3.366 1.715 2.884 2.007 4.645 1.938 8-1.237 3.957-2.667 5.443-5.938 8-3.027.714-5.964.678-9.063.629l-2.633.007a420.062 420.062 0 0 1-5.496-.04c-2.8-.033-5.595-.02-8.394 0-1.784-.007-3.568-.017-5.351-.03l-2.526.015c-4.035-.081-6.065-.28-9.55-2.496-2.615-2.744-2.94-4.382-3.194-8.05.35-3.448 1.973-5.49 4.207-8.035 3.823-1.274 7.444-1.182 11.43-1.203ZM165.55 184.762l2.58-.025c1.803-.014 3.606-.024 5.409-.032 2.752-.017 5.504-.061 8.256-.105 1.752-.01 3.504-.019 5.256-.026l2.488-.053c4.02.015 5.98.173 9.458 2.38 2.597 2.722 2.957 3.615 3.315 7.411-.36 4.263-1.332 5.708-4.312 8.688-5.132 2.566-13.253 1.313-18.966 1.35-1.892.017-3.785.044-5.677.082-2.73.055-5.458.077-8.189.091l-2.554.07c-4.39-.017-6.081-.174-9.648-2.98-2.601-3.457-2.629-5.35-2.4-9.523.626-3.017 1.956-4.34 4.434-6.09 3.287-1.643 6.936-1.206 10.55-1.238ZM523 133c3.108 2.642 3.861 4.333 4.688 8.313-1.642 8.804-11.872 16.022-18 22.125l-2.745 2.755-2.619 2.616-2.372 2.368c-2.633 2.459-3.61 2.79-7.264 3.136-4.382-.372-5.848-.971-8.688-4.313-.998-2.742-1.458-5.11-1-8 2.605-4.284 5.529-7.785 9.063-11.328l1.433-1.44c.993-.994 1.988-1.985 2.985-2.974a829.945 829.945 0 0 0 4.542-4.555c.971-.97 1.942-1.938 2.914-2.906l2.653-2.646c4.704-4.2 8.404-5.034 14.41-3.151ZM239 111c2.502 1.876 3.62 3.239 5 6 .136 2.858.213 5.691.238 8.55l.025 2.58c.014 1.803.024 3.606.032 5.409.017 2.752.061 5.504.105 8.256.01 1.752.019 3.504.026 5.256l.053 2.488c-.015 4.02-.173 5.98-2.38 9.458-2.722 2.597-3.615 2.957-7.411 3.315-4.263-.36-5.708-1.332-8.688-4.312-1.648-3.296-1.163-6.962-1.168-10.586l-.01-2.586c-.005-1.807-.007-3.614-.007-5.422-.002-2.763-.02-5.526-.04-8.289-.003-1.755-.005-3.51-.005-5.265l-.022-2.504c.029-7.37.029-7.37 2.252-10.348 4.002-2.668 7.294-2.715 12-2ZM462.281 110.238l2.219.075 2.219-.012c3.54 1.085 4.989 2.808 7.281 5.699.718 3.026.678 5.964.629 9.063l.007 2.633a420.062 420.062 0 0 1-.04 5.496c-.033 2.8-.02 5.595 0 8.394-.007 1.784-.017 3.568-.03 5.351l.015 2.526c-.08 4.03-.279 6.062-2.491 9.54-2.716 2.595-3.612 2.952-7.402 3.31-4.276-.363-5.736-1.274-8.688-4.313-1.992-5.976-1.307-12.86-1.35-19.132a439.996 439.996 0 0 0-.082-5.345 494.488 494.488 0 0 1-.091-7.73l-.07-2.396c.016-4.1.376-6.645 2.983-9.899C460 111 460 111 462.281 110.238Z"/></svg>
