<svg version="1.1" xmlns="http://www.w3.org/2000/svg" xmlns:xlink="http://www.w3.org/1999/xlink" x="0px" y="0px" viewBox="0 0 256 256" enable-background="new 0 0 256 256" xml:space="preserve">
<metadata> Svg Vector Icons : http://www.onlinewebfonts.com/icon </metadata>
<g><g><g><path fill="#32ccc4" d="M74.4,30.7c-3.3,2-6.1,6.4-6.1,9.7c0,3.8,2.8,8.7,6,10.7c3,1.8,4.9,1.9,37,1.9h33.7v6.8v6.8H137c-10.7,0-11.4,0.7-11.4,11.5v8H69.4c-50,0-56.5,0.2-57.8,1.6c-1.2,1.2-1.6,3.6-1.6,10.4c0,5,0.5,9.6,1,10.4c0.7,1.1,3.3,1.6,9.4,1.9l8.6,0.5l0.3,56.8c0.1,39.9,0.5,57.1,1.3,58.1c1.7,1.9,192.5,1.9,194.2,0c0.8-1,1.2-18.2,1.3-58.1l0.3-56.8l8.6-0.5c6.1-0.4,8.7-0.9,9.4-1.9c0.5-0.8,1-5.4,1-10.4c0-6.8-0.4-9.2-1.6-10.4c-1.3-1.4-5.2-1.6-28.2-1.6h-26.6V78c0-10.7-0.7-11.4-11.5-11.4h-8v-6.8v-6.8h33.8c31.8,0,33.9-0.1,36.8-1.9c8-4.9,8-15.5,0-20.4c-3-1.8-5.4-1.9-82.8-1.9C79.9,28.8,77.4,28.9,74.4,30.7z M236.7,34.7c1.2,0.7,2.4,1.7,2.8,2.2c1.3,1.9,0.8,6.7-0.9,8.6c-1.5,1.7-5.2,1.7-81.2,1.7c-72.8,0-79.9-0.1-81.5-1.7c-2.7-2.4-2.3-7.5,0.8-9.9c2.6-2,3.2-2,80.3-2C213.6,33.6,235.2,33.9,236.7,34.7z M164.3,60.1l0.3,6.6h-6.9h-6.8v-6.8V53l6.6,0.3l6.5,0.3L164.3,60.1z M183,79.3v6.8h-25.8h-25.8v-6.8v-6.8h25.8H183V79.3z M239.3,98v6.6h-7.2c-12.4,0-11.3-6-11.6,60.3l-0.2,56.8h-92.8H34.8l-0.2-56.8c-0.3-66.3,0.9-60.3-11.6-60.3h-7.2v-6.8v-6.7l111.8,0.2l111.8,0.2L239.3,98L239.3,98z"/><path fill="#32ccc4" d="M50.8,126c-1.8,1.8-1.9,3.2-1.9,39.4c0,36.2,0.1,37.5,1.9,39.4c1.9,1.9,3.2,1.9,77.7,1.9c74.5,0,75.8,0,77.7-1.9c1.8-1.8,1.9-3.2,1.9-39.4c0-36.2-0.1-37.5-1.9-39.4c-1.9-1.9-3.2-1.9-77.7-1.9C54,124,52.8,124,50.8,126z M202.4,165.3v35.5h-73.9H54.7v-35.5v-35.5h73.9h73.9V165.3z"/></g></g></g>
</svg>