<svg y="0px" x="0px" xml:space="preserve" version="1.1" viewBox="1.92 11.88 44.88 27.48" xmlns="http://www.w3.org/2000/svg" style="max-height: 500px" width="44.88" height="27.48"><g><g transform="translate(-60)"><path stroke-linejoin="round" stroke-linecap="round" fill="#32ccc4" d="M 64 13 A 1.0001 1.0001 0 0 0 63 14 L 63 32 A 1.0001 1.0001 0 0 0 64 33 L 79 33 L 79 37 A 1 1 0 0 0 80 38 A 1 1 0 0 0 81 37 L 81 33 L 82 33 L 82 37 A 1 1 0 0 0 83 38 A 1 1 0 0 0 84 37 L 84 33 L 85 33 L 85 37 A 1 1 0 0 0 86 38 A 1 1 0 0 0 87 37 L 87 33 L 88 33 L 88 37 A 1 1 0 0 0 89 38 A 1 1 0 0 0 90 37 L 90 33 L 105 33 A 1.0001 1.0001 0 0 0 106 32 L 106 14 A 1.0001 1.0001 0 0 0 105 13 L 64 13 z M 65 15 L 104 15 L 104 31 L 90 31 L 90 30 A 1 1 0 0 0 89 29 A 1 1 0 0 0 88 30 L 88 31 L 87 31 L 87 30 A 1 1 0 0 0 86 29 A 1 1 0 0 0 85 30 L 85 31 L 84 31 L 84 30 A 1 1 0 0 0 83 29 A 1 1 0 0 0 82 30 L 82 31 L 81 31 L 81 30 A 1 1 0 0 0 80 29 A 1 1 0 0 0 79 30 L 79 31 L 65 31 L 65 15 z M 73 16 C 69.14586 16 66 19.14586 66 23 C 66 26.85414 69.14586 30 73 30 C 76.85414 30 80 26.85414 80 23 C 80 19.14586 76.85414 16 73 16 z M 81 16 A 1 1 0 0 0 80 17 A 1 1 0 0 0 81 18 L 88 18 A 1 1 0 0 0 89 17 A 1 1 0 0 0 88 16 L 81 16 z M 96 16 C 92.14586 16 89 19.14586 89 23 C 89 26.85414 92.14586 30 96 30 C 99.854142 30 103 26.85414 103 23 C 103 19.14586 99.854142 16 96 16 z M 73 18 C 75.773262 18 78 20.226738 78 23 C 78 25.773262 75.773262 28 73 28 C 70.226738 28 68 25.773262 68 23 C 68 20.226738 70.226738 18 73 18 z M 96 18 C 98.773264 18 101 20.226738 101 23 C 101 25.773262 98.773264 28 96 28 C 93.226738 28 91 25.773262 91 23 C 91 20.226738 93.226738 18 96 18 z M 73 19 C 70.80271 19 69 20.80271 69 23 C 69 25.19729 70.80271 27 73 27 C 75.197291 27 77 25.19729 77 23 C 77 20.80271 75.197291 19 73 19 z M 96 19 C 93.80271 19 92 20.80271 92 23 C 92 25.19729 93.80271 27 96 27 C 98.197291 27 100 25.19729 100 23 C 100 20.80271 98.197291 19 96 19 z M 73 21 C 74.116413 21 75 21.883588 75 23 C 75 24.116412 74.116413 25 73 25 C 71.883588 25 71 24.116412 71 23 C 71 21.883588 71.883588 21 73 21 z M 96 21 C 97.116413 21 98 21.883588 98 23 C 98 24.116412 97.116413 25 96 25 C 94.883588 25 94 24.116412 94 23 C 94 21.883588 94.883588 21 96 21 z" style="color:#000000;"/></g></g><text font-family="'Helvetica Neue', Helvetica, Arial-Unicode, Arial, Sans-serif" font-weight="bold" font-size="5px" fill="#32ccc4" y="63" x="0">Created by Dedy Dwi Qoirudin</text><text font-family="'Helvetica Neue', Helvetica, Arial-Unicode, Arial, Sans-serif" font-weight="bold" font-size="5px" fill="#32ccc4" y="68" x="0">from the Noun Project</text></svg>